if (_typeface_js && _typeface_js.loadFace) _typeface_js.loadFace({"glyphs":{"0":{"ha":811,"x_min":0,"x_max":0,"o":"m 110 272 b 382 0 110 121 231 0 b 656 272 533 0 656 121 l 656 779 b 382 1042 650 925 529 1042 b 110 779 233 1042 115 925 z m 628 272 b 382 28 628 136 518 28 b 138 272 246 28 138 136 l 138 768 b 382 1014 138 904 246 1014 b 628 768 518 1014 628 904 z "},"1":{"ha":625,"x_min":0,"x_max":0,"o":"m 315 0 l 343 0 l 343 1042 l 315 1042 z "},"2":{"ha":811,"x_min":0,"x_max":0,"o":"m 156 768 b 401 1014 156 904 265 1014 b 647 768 538 1014 647 904 b 596 618 647 711 628 660 l 163 0 l 676 0 l 676 26 l 214 26 l 619 604 b 675 768 656 653 675 710 b 401 1042 675 919 553 1042 b 128 768 250 1042 128 919 z "},"3":{"ha":811,"x_min":0,"x_max":0,"o":"m 167 1014 l 540 1014 l 160 472 l 179 453 b 346 518 222 493 281 518 b 592 272 482 518 592 408 b 346 28 592 136 482 28 b 179 93 281 28 222 53 l 158 74 b 346 0 207 28 272 0 b 619 272 497 0 619 121 b 346 546 619 424 497 546 b 225 518 301 546 261 536 l 572 1014 l 592 1042 l 167 1042 z "},"4":{"ha":811,"x_min":0,"x_max":0,"o":"m 589 0 l 617 0 l 617 219 l 808 219 l 808 249 l 617 249 l 617 1042 l 583 1042 l 7 219 l 589 219 z m 60 249 l 589 1001 l 589 249 z "},"5":{"ha":811,"x_min":0,"x_max":0,"o":"m 204 519 l 383 519 b 629 274 519 519 629 410 b 383 28 629 138 519 28 b 138 274 247 28 138 138 l 110 274 b 383 0 110 122 232 0 b 657 274 535 0 657 122 b 383 547 657 425 535 547 l 232 547 l 232 1014 l 643 1014 l 643 1042 l 204 1042 z "},"6":{"ha":811,"x_min":0,"x_max":0,"o":"m 108 272 b 381 0 108 121 229 0 b 654 272 532 0 654 121 b 381 546 654 424 532 546 b 246 511 332 546 286 533 l 619 1042 l 588 1042 l 164 439 b 108 272 129 393 108 335 z m 135 272 b 381 519 135 410 243 519 b 628 272 518 519 628 410 b 381 26 628 135 518 26 b 135 272 243 26 135 135 z "},"7":{"ha":811,"x_min":0,"x_max":0,"o":"m 47 1014 l 794 1014 l 81 0 l 117 0 l 846 1042 l 47 1042 z "},"8":{"ha":811,"x_min":0,"x_max":0,"o":"m 110 274 b 383 0 110 122 232 0 b 658 274 535 0 658 122 b 468 535 658 394 578 499 b 644 781 571 569 644 665 b 383 1042 644 925 528 1042 b 124 781 239 1042 124 925 b 297 535 124 665 196 569 b 110 274 188 499 110 394 z m 138 274 b 372 521 138 406 242 515 l 383 521 l 393 521 b 631 274 525 515 631 406 b 383 28 631 138 519 28 b 138 274 247 28 138 138 z m 151 781 b 383 1014 151 910 254 1014 b 617 781 513 1014 617 910 b 383 549 617 651 513 549 l 374 549 b 151 781 249 553 151 654 z "},"9":{"ha":811,"x_min":0,"x_max":0,"o":"m 656 769 b 383 1042 656 921 535 1042 b 110 769 232 1042 110 921 b 383 496 110 618 232 496 b 518 531 432 496 478 508 l 144 0 l 176 0 l 600 603 b 656 769 635 649 656 707 z m 629 769 b 383 522 629 632 521 522 b 136 769 246 522 136 632 b 383 1015 136 907 246 1015 b 629 769 521 1015 629 907 z "},"\u0000":{"ha":0,"x_min":0,"x_max":0,"o":""},"\r":{"ha":694,"x_min":0,"x_max":0,"o":""}," ":{"ha":694,"x_min":0,"x_max":0,"o":""},"U":{"ha":1029,"x_min":0,"x_max":0,"o":"m 103 411 b 514 0 103 183 286 0 b 926 411 742 0 926 183 l 926 1042 l 899 1042 l 899 410 b 514 29 897 199 724 29 b 131 411 303 29 131 200 l 131 1042 l 103 1042 z "},"O":{"ha":1210,"x_min":0,"x_max":0,"o":"m 83 521 b 604 0 83 232 315 0 b 1126 521 893 0 1126 232 b 604 1042 1126 810 893 1042 b 83 521 315 1042 83 810 z m 110 521 b 604 1015 110 796 329 1015 b 1100 521 879 1015 1100 796 b 604 26 1100 246 879 26 b 110 521 329 26 110 246 z "},"Q":{"ha":1269,"x_min":0,"x_max":0,"o":"m 83 521 b 604 0 83 232 315 0 b 953 132 738 0 861 50 l 1086 0 l 1128 0 l 974 153 b 1126 521 1068 247 1126 376 b 604 1042 1126 810 893 1042 b 83 521 315 1042 83 810 z m 622 464 l 935 151 b 604 26 847 74 731 26 b 110 521 329 26 110 246 b 604 1015 110 796 329 1015 b 1100 521 879 1015 1100 796 b 956 171 1100 383 1044 260 l 643 485 z "},"G":{"ha":1207,"x_min":0,"x_max":0,"o":"m 611 531 l 1106 531 l 1106 521 b 611 26 1106 254 885 26 b 117 521 338 26 117 247 b 611 1015 117 794 338 1015 b 958 874 747 1015 869 961 l 978 892 b 611 1042 883 985 754 1042 b 90 521 324 1042 90 808 b 611 0 90 233 324 0 b 1135 521 899 0 1135 233 l 1135 560 l 611 560 z "},"D":{"ha":1132,"x_min":0,"x_max":0,"o":"m 143 0 l 533 0 b 1054 521 821 0 1054 233 b 535 1042 1054 807 821 1040 l 143 1042 z m 1025 521 b 531 28 1025 247 804 28 l 171 28 l 171 1014 l 531 1014 b 1025 521 804 1014 1025 794 z "},"N":{"ha":1125,"x_min":0,"x_max":0,"o":"m 978 0 l 1021 0 l 1021 1042 l 993 1042 l 993 28 l 189 1042 l 143 1042 l 143 0 l 171 0 l 171 1014 z "},"H":{"ha":1135,"x_min":0,"x_max":0,"o":"m 993 0 l 1019 0 l 1019 1042 l 993 1042 l 993 546 l 169 546 l 169 1042 l 143 1042 l 143 0 l 169 0 l 169 519 l 993 519 z "},"C":{"ha":1074,"x_min":0,"x_max":0,"o":"m 951 174 b 601 26 863 83 738 26 b 107 521 328 26 107 247 b 601 1015 107 794 328 1015 b 949 874 738 1015 860 961 l 968 892 b 601 1042 874 985 744 1042 b 81 521 314 1042 81 808 b 601 0 81 233 314 0 b 971 153 746 0 876 58 z "},"A":{"ha":1050,"x_min":0,"x_max":0,"o":"m 54 0 l 210 335 l 840 335 l 999 0 l 1029 0 l 539 1042 l 510 1042 l 24 0 z m 525 1010 l 826 363 l 224 363 z "},"B":{"ha":1022,"x_min":0,"x_max":0,"o":"m 657 1042 l 143 1042 l 143 0 l 683 0 b 965 282 839 0 965 126 b 753 554 965 413 875 524 b 910 789 844 593 910 683 b 657 1042 910 928 796 1042 z m 683 536 b 938 282 824 536 938 422 b 683 28 938 142 824 28 l 171 28 l 171 536 z m 171 564 l 171 1014 l 657 1014 b 882 789 781 1014 882 913 b 657 564 882 665 781 564 z "},"R":{"ha":883,"x_min":0,"x_max":0,"o":"m 713 0 l 744 0 l 499 426 b 803 733 667 429 803 565 b 494 1042 803 903 664 1042 l 143 1042 l 143 0 l 169 0 l 169 426 l 467 426 z m 774 733 b 494 453 774 578 647 454 l 169 453 l 169 1015 l 494 1015 b 774 733 649 1014 774 888 z "},"X":{"ha":932,"x_min":0,"x_max":0,"o":"m 117 0 l 476 515 l 838 0 l 874 0 l 494 540 l 844 1042 l 810 1042 l 476 565 l 144 1042 l 110 1042 l 460 540 l 81 0 z "},"P":{"ha":868,"x_min":0,"x_max":0,"o":"m 494 1042 l 143 1042 l 143 0 l 169 0 l 169 426 l 494 426 b 803 733 664 426 803 564 b 494 1042 803 903 664 1042 z m 492 1015 b 774 733 647 1015 774 889 b 494 453 774 578 647 454 l 169 453 l 169 1015 z "},"J":{"ha":833,"x_min":0,"x_max":0,"o":"m 729 1042 l 703 1042 l 703 379 b 322 26 703 113 489 26 b 46 128 213 26 136 56 l 26 108 b 325 0 122 39 179 0 b 618 100 461 0 556 43 b 729 375 701 175 729 278 z "},"Z":{"ha":899,"x_min":0,"x_max":0,"o":"m 788 0 l 788 28 l 203 28 l 788 1042 l 154 1042 l 154 1014 l 739 1014 l 154 0 z "},"K":{"ha":969,"x_min":0,"x_max":0,"o":"m 806 1042 l 767 1042 l 169 449 l 169 1042 l 143 1042 l 143 0 l 169 0 l 169 407 l 306 543 l 850 0 l 892 0 l 328 565 z "},"T":{"ha":988,"x_min":0,"x_max":0,"o":"m 83 1042 l 83 1015 l 481 1015 l 481 0 l 507 0 l 507 1015 l 906 1015 l 906 1042 z "},"F":{"ha":882,"x_min":0,"x_max":0,"o":"m 143 0 l 169 0 l 169 519 l 749 519 l 749 547 l 169 547 l 169 1014 l 792 1014 l 792 1042 l 143 1042 z "},"E":{"ha":881,"x_min":0,"x_max":0,"o":"m 143 0 l 792 0 l 792 28 l 169 28 l 169 519 l 749 519 l 749 547 l 169 547 l 169 1014 l 792 1014 l 792 1042 l 143 1042 z "},"(":{"ha":653,"x_min":0,"x_max":0,"o":"m 588 26 b 93 521 314 26 93 247 b 588 1015 93 794 314 1015 l 588 1042 b 67 521 300 1042 67 808 b 588 0 67 233 300 0 z "},")":{"ha":653,"x_min":0,"x_max":0,"o":"m 67 0 b 588 521 354 0 588 233 b 67 1042 588 808 354 1042 l 67 1015 b 561 521 340 1015 561 794 b 67 26 561 247 340 26 z "},"?":{"ha":764,"x_min":0,"x_max":0,"o":"m 304 111 l 332 111 l 332 493 b 579 767 469 507 579 625 b 304 1042 579 918 456 1042 b 29 769 154 1042 31 919 l 56 769 b 304 1015 57 906 168 1015 b 553 767 442 1015 553 904 b 304 518 553 629 442 518 z m 290 28 b 318 0 290 13 303 0 b 346 28 333 0 346 13 b 318 56 346 43 333 56 b 290 28 303 56 290 43 z "},"¿":{"ha":764,"x_min":0,"x_max":0,"o":"m 328 931 l 300 931 l 300 549 b 53 275 163 535 53 417 b 328 0 53 124 176 0 b 603 272 478 0 601 122 l 576 272 b 328 26 575 136 464 26 b 79 275 190 26 79 138 b 328 524 79 413 190 524 z m 342 1014 b 314 1042 342 1029 329 1042 b 286 1014 299 1042 286 1029 b 314 986 286 999 299 986 b 342 1014 329 986 342 999 z "},"S":{"ha":728,"x_min":0,"x_max":0,"o":"m 631 774 b 364 1042 631 921 511 1042 b 97 775 217 1042 97 922 b 364 508 97 628 217 508 b 604 267 497 508 604 400 b 364 26 604 133 497 26 b 124 268 231 26 124 135 l 97 268 b 364 0 97 121 217 0 b 631 267 511 0 631 119 b 364 533 631 414 511 533 b 124 774 231 533 124 640 b 364 1014 124 907 231 1014 b 604 774 497 1014 604 907 z "},"$":{"ha":1157,"x_min":0,"x_max":0,"o":"m 396 535 b 156 775 263 535 156 642 b 396 1015 156 908 263 1015 b 636 774 529 1015 636 907 l 663 774 b 417 1040 663 914 554 1029 l 417 1124 l 389 1124 l 389 1042 b 129 775 244 1038 129 919 b 396 508 129 628 249 508 z m 156 268 b 396 26 156 135 263 26 b 636 268 529 26 636 135 b 396 508 636 401 529 508 l 396 535 b 663 268 543 535 663 415 b 417 0 663 128 554 11 l 417 13 l 389 13 l 389 0 b 129 268 244 3 129 122 z m 389 -83 l 417 -83 l 417 0 l 396 0 l 389 0 z "},"%":{"ha":1157,"x_min":0,"x_max":0,"o":"m 197 1014 b 224 988 197 999 208 988 b 251 1014 239 988 251 999 b 224 1042 251 1029 239 1042 b 197 1014 208 1042 197 1029 z m 653 26 b 679 0 653 11 664 0 b 707 26 694 0 707 11 b 679 54 707 42 694 54 b 653 26 664 54 653 42 z m 197 0 l 226 0 l 707 1042 l 678 1042 z "},"/":{"ha":792,"x_min":0,"x_max":0,"o":"m 142 0 l 171 0 l 650 1042 l 621 1042 z "},"\\":{"ha":792,"x_min":0,"x_max":0,"o":"m 171 1043 l 142 1043 l 622 0 l 651 0 z "},"&":{"ha":1157,"x_min":0,"x_max":0,"o":"m 658 276 l 639 257 l 783 110 b 579 26 732 58 658 26 b 288 318 417 26 288 156 b 376 532 288 401 319 479 l 576 724 b 629 851 610 757 629 801 b 439 1042 629 957 544 1042 b 250 851 333 1042 250 957 b 283 744 250 811 263 775 l 299 758 b 271 851 281 785 271 817 b 439 1022 271 944 346 1022 b 610 851 532 1022 610 944 b 560 735 610 807 592 765 l 361 550 b 263 319 300 492 263 410 b 582 0 263 143 406 0 b 804 89 667 0 746 33 l 894 0 l 914 19 z "},"+":{"ha":903,"x_min":0,"x_max":0,"o":"m 124 467 l 439 467 l 439 151 l 467 151 l 467 467 l 782 467 l 782 494 l 467 494 l 467 810 l 439 810 l 439 494 l 124 494 z "},"-":{"ha":640,"x_min":0,"x_max":0,"o":"m 40 467 l 588 467 l 588 492 l 40 492 z "},"=":{"ha":903,"x_min":0,"x_max":0,"o":"m 163 596 l 710 596 l 710 624 l 163 624 z m 163 349 l 710 349 l 710 375 l 163 375 z "},"]":{"ha":472,"x_min":0,"x_max":0,"o":"m 210 1042 l 72 1042 l 72 1015 l 182 1015 l 182 28 l 72 28 l 72 0 l 210 0 z "},"[":{"ha":472,"x_min":0,"x_max":0,"o":"m 72 0 l 210 0 l 210 28 l 100 28 l 100 1015 l 210 1015 l 210 1042 l 72 1042 z "},"_":{"ha":694,"x_min":0,"x_max":0,"o":"m 74 -29 l 621 -29 l 621 0 l 74 0 z "},"L":{"ha":882,"x_min":0,"x_max":0,"o":"m 169 1042 l 143 1042 l 143 0 l 793 0 l 793 26 l 169 26 z "},"I":{"ha":389,"x_min":0,"x_max":0,"o":"m 200 0 l 200 1042 l 174 1042 l 174 0 z "},"!":{"ha":417,"x_min":0,"x_max":0,"o":"m 111 110 l 139 110 l 139 1042 l 111 1042 z m 97 26 b 124 0 97 11 108 0 b 151 26 139 0 151 11 b 124 54 151 42 139 54 b 97 26 108 54 97 42 z "},"¡":{"ha":417,"x_min":0,"x_max":0,"o":"m 111 0 l 139 0 l 139 932 l 111 932 z m 97 1015 b 124 988 97 1000 108 988 b 151 1015 139 988 151 1000 b 124 1042 151 1031 139 1042 b 97 1015 108 1042 97 1031 z "},";":{"ha":372,"x_min":0,"x_max":0,"o":"m 85 521 b 113 493 85 506 97 493 b 142 521 128 493 142 506 b 113 550 142 536 128 550 b 85 521 97 550 85 536 z m 111 54 b 86 28 97 54 86 42 b 108 0 86 13 96 1 l 108 -47 b 140 19 108 -47 140 -25 b 111 54 140 44 125 54 z "},":":{"ha":372,"x_min":0,"x_max":0,"o":"m 85 519 b 113 492 85 504 97 492 b 142 519 128 492 142 504 b 113 549 142 535 128 549 b 85 519 97 549 85 535 z m 85 26 b 113 -1 85 11 97 -1 b 142 26 128 -1 142 11 b 113 56 142 42 128 56 b 85 26 97 56 85 42 z "},".":{"ha":347,"x_min":0,"x_max":0,"o":"m 147 26 b 174 0 147 11 158 0 b 201 26 189 0 201 11 b 174 54 201 42 189 54 b 147 26 158 54 147 42 z "},",":{"ha":347,"x_min":0,"x_max":0,"o":"m 71 54 b 43 28 54 54 43 42 b 65 0 43 13 53 1 l 65 -47 b 99 19 65 -47 99 -25 b 71 54 99 44 83 54 z "},"“":{"ha":264,"x_min":0,"x_max":0,"o":"m 100 940 b 128 967 117 940 128 953 b 106 994 128 982 118 993 l 106 1042 b 72 975 106 1042 72 1019 b 100 940 72 950 88 940 z m 167 940 b 194 967 183 940 194 953 b 172 994 194 982 185 993 l 172 1042 b 139 975 172 1042 139 1019 b 167 940 139 950 154 940 z "},"”":{"ha":264,"x_min":0,"x_max":0,"o":"m 178 1042 b 150 1015 161 1042 150 1029 b 172 988 150 1000 160 989 l 172 940 b 206 1007 172 940 206 963 b 178 1042 206 1032 190 1042 z m 111 1042 b 83 1015 94 1042 83 1029 b 106 988 83 1000 93 989 l 106 940 b 139 1007 106 940 139 963 b 111 1042 139 1032 124 1042 z "},"‘":{"ha":139,"x_min":0,"x_max":0,"o":"m 78 940 b 106 967 94 940 106 953 b 83 994 106 982 96 993 l 83 1042 b 50 975 83 1042 50 1019 b 78 940 50 950 65 940 z "},"’":{"ha":139,"x_min":0,"x_max":0,"o":"m 76 1042 b 49 1015 60 1042 49 1029 b 71 988 49 1000 58 989 l 71 940 b 104 1007 71 940 104 963 b 76 1042 104 1032 89 1042 z "},"⁄":{"ha":792,"x_min":0,"x_max":0,"o":"m 142 0 l 171 0 l 651 1042 l 622 1042 z "},"a":{"ha":1047,"x_min":0,"x_max":0,"o":"m 54 0 l 210 335 l 840 335 l 996 0 l 1026 0 l 540 1042 l 510 1042 l 24 0 z m 525 1010 l 826 363 l 224 363 z "},"b":{"ha":1022,"x_min":0,"x_max":0,"o":"m 657 1042 l 143 1042 l 143 0 l 683 0 b 965 282 839 0 965 126 b 753 554 965 413 875 524 b 910 789 844 593 910 683 b 657 1042 910 928 796 1042 z m 683 536 b 938 282 824 536 938 422 b 683 28 938 142 824 28 l 171 28 l 171 536 z m 171 564 l 171 1014 l 657 1014 b 882 789 781 1014 882 913 b 657 564 882 665 781 564 z "},"c":{"ha":1074,"x_min":0,"x_max":0,"o":"m 951 174 b 601 26 863 83 738 26 b 107 521 328 26 107 247 b 601 1015 107 794 328 1015 b 949 874 738 1015 860 961 l 968 892 b 601 1042 874 985 744 1042 b 81 521 314 1042 81 808 b 601 0 81 233 314 0 b 971 153 746 0 876 58 z "},"d":{"ha":1132,"x_min":0,"x_max":0,"o":"m 143 0 l 533 0 b 1054 521 821 0 1054 233 b 535 1042 1054 807 821 1040 l 143 1042 z m 1025 521 b 531 28 1025 247 804 28 l 171 28 l 171 1014 l 531 1014 b 1025 521 804 1014 1025 794 z "},"e":{"ha":881,"x_min":0,"x_max":0,"o":"m 143 0 l 792 0 l 792 28 l 169 28 l 169 519 l 749 519 l 749 547 l 169 547 l 169 1014 l 792 1014 l 792 1042 l 143 1042 z "},"f":{"ha":882,"x_min":0,"x_max":0,"o":"m 143 0 l 169 0 l 169 519 l 749 519 l 749 547 l 169 547 l 169 1014 l 792 1014 l 792 1042 l 143 1042 z "},"g":{"ha":1207,"x_min":0,"x_max":0,"o":"m 611 531 l 1106 531 l 1106 521 b 611 26 1106 254 885 26 b 117 521 338 26 117 247 b 611 1015 117 794 338 1015 b 958 874 747 1015 869 961 l 978 892 b 611 1042 883 985 754 1042 b 90 521 324 1042 90 808 b 611 0 90 233 324 0 b 1135 521 899 0 1135 233 l 1135 560 l 611 560 z "},"h":{"ha":1135,"x_min":0,"x_max":0,"o":"m 993 0 l 1019 0 l 1019 1042 l 993 1042 l 993 546 l 169 546 l 169 1042 l 143 1042 l 143 0 l 169 0 l 169 519 l 993 519 z "},"i":{"ha":389,"x_min":0,"x_max":0,"o":"m 200 0 l 200 1042 l 174 1042 l 174 0 z "},"j":{"ha":833,"x_min":0,"x_max":0,"o":"m 729 1042 l 703 1042 l 703 379 b 322 26 703 113 489 26 b 46 128 213 26 136 56 l 26 108 b 325 0 122 39 179 0 b 618 100 461 0 556 43 b 729 375 701 175 729 278 z "},"k":{"ha":969,"x_min":0,"x_max":0,"o":"m 806 1042 l 767 1042 l 169 449 l 169 1042 l 143 1042 l 143 0 l 169 0 l 169 407 l 306 543 l 850 0 l 892 0 l 328 565 z "},"l":{"ha":882,"x_min":0,"x_max":0,"o":"m 169 1042 l 143 1042 l 143 0 l 793 0 l 793 26 l 169 26 z "},"m":{"ha":1357,"x_min":0,"x_max":0,"o":"m 1214 0 l 1242 0 l 1242 1042 l 1201 1042 l 692 532 l 183 1042 l 143 1042 l 143 0 l 171 0 l 171 1015 l 692 494 l 1214 1015 z "},"n":{"ha":1125,"x_min":0,"x_max":0,"o":"m 978 0 l 1021 0 l 1021 1042 l 993 1042 l 993 28 l 189 1042 l 143 1042 l 143 0 l 171 0 l 171 1014 z "},"o":{"ha":1210,"x_min":0,"x_max":0,"o":"m 83 521 b 604 0 83 232 315 0 b 1126 521 893 0 1126 232 b 604 1042 1126 810 893 1042 b 83 521 315 1042 83 810 z m 110 521 b 604 1015 110 796 329 1015 b 1100 521 879 1015 1100 796 b 604 26 1100 246 879 26 b 110 521 329 26 110 246 z "},"p":{"ha":868,"x_min":0,"x_max":0,"o":"m 494 1042 l 143 1042 l 143 0 l 169 0 l 169 426 l 494 426 b 803 733 664 426 803 564 b 494 1042 803 903 664 1042 z m 492 1015 b 774 733 647 1015 774 889 b 494 453 774 578 647 454 l 169 453 l 169 1015 z "},"q":{"ha":1269,"x_min":0,"x_max":0,"o":"m 83 521 b 604 0 83 232 315 0 b 953 132 738 0 861 50 l 1086 0 l 1128 0 l 974 153 b 1126 521 1068 247 1126 376 b 604 1042 1126 810 893 1042 b 83 521 315 1042 83 810 z m 622 464 l 935 151 b 604 26 847 74 731 26 b 110 521 329 26 110 246 b 604 1015 110 796 329 1015 b 1100 521 879 1015 1100 796 b 956 171 1100 383 1044 260 l 643 485 z "},"r":{"ha":883,"x_min":0,"x_max":0,"o":"m 713 0 l 744 0 l 499 426 b 803 733 667 429 803 565 b 494 1042 803 903 664 1042 l 143 1042 l 143 0 l 169 0 l 169 426 l 467 426 z m 774 733 b 494 453 774 578 647 454 l 169 453 l 169 1015 l 494 1015 b 774 733 649 1014 774 888 z "},"s":{"ha":728,"x_min":0,"x_max":0,"o":"m 631 774 b 364 1042 631 921 511 1042 b 97 775 217 1042 97 922 b 364 508 97 628 217 508 b 604 267 497 508 604 400 b 364 26 604 133 497 26 b 124 268 231 26 124 135 l 97 268 b 364 0 97 121 217 0 b 631 267 511 0 631 119 b 364 533 631 414 511 533 b 124 774 231 533 124 640 b 364 1014 124 907 231 1014 b 604 774 497 1014 604 907 z "},"t":{"ha":988,"x_min":0,"x_max":0,"o":"m 83 1042 l 83 1015 l 481 1015 l 481 0 l 507 0 l 507 1015 l 906 1015 l 906 1042 z "},"u":{"ha":1029,"x_min":0,"x_max":0,"o":"m 103 411 b 514 0 103 183 286 0 b 926 411 742 0 926 183 l 926 1042 l 899 1042 l 899 410 b 514 29 897 199 724 29 b 131 411 303 29 131 200 l 131 1042 l 103 1042 z "},"v":{"ha":1083,"x_min":0,"x_max":0,"o":"m 990 1042 l 519 32 l 44 1042 l 14 1042 l 504 0 l 535 0 l 1021 1042 z "},"w":{"ha":1610,"x_min":0,"x_max":0,"o":"m 783 543 l 1039 0 l 1069 0 l 1556 1042 l 1525 1042 l 1054 32 l 799 576 l 768 576 l 515 32 l 40 1042 l 10 1042 l 500 0 l 531 0 z "},"x":{"ha":932,"x_min":0,"x_max":0,"o":"m 117 0 l 476 515 l 838 0 l 874 0 l 494 540 l 844 1042 l 810 1042 l 476 565 l 144 1042 l 110 1042 l 460 540 l 81 0 z "},"y":{"ha":897,"x_min":0,"x_max":0,"o":"m 394 0 l 421 0 l 421 385 l 806 1042 l 772 1042 l 407 411 l 43 1042 l 10 1042 l 394 385 z "},"z":{"ha":899,"x_min":0,"x_max":0,"o":"m 788 0 l 788 28 l 203 28 l 788 1042 l 154 1042 l 154 1014 l 739 1014 l 154 0 z "},"Y":{"ha":897,"x_min":0,"x_max":0,"o":"m 394 0 l 421 0 l 421 385 l 806 1042 l 772 1042 l 407 411 l 43 1042 l 10 1042 l 394 385 z "},"W":{"ha":1610,"x_min":0,"x_max":0,"o":"m 783 543 l 1039 0 l 1069 0 l 1556 1042 l 1525 1042 l 1054 32 l 799 576 l 768 576 l 515 32 l 40 1042 l 10 1042 l 500 0 l 531 0 z "},"M":{"ha":1357,"x_min":0,"x_max":0,"o":"m 1214 0 l 1242 0 l 1242 1042 l 1201 1042 l 692 532 l 183 1042 l 143 1042 l 143 0 l 171 0 l 171 1015 l 692 494 l 1214 1015 z "},"V":{"ha":1083,"x_min":0,"x_max":0,"o":"m 990 1042 l 519 32 l 44 1042 l 14 1042 l 504 0 l 535 0 l 1021 1042 z "}}}
